<?xml version="1.0" encoding="utf-8"?>
<svg width="698.29449" height="208.33237" style="fill-rule:evenodd" viewBox="0 0 197.07422 58.796024" id="svg2" version="1.1" xmlns="http://www.w3.org/2000/svg">
  <defs id="defs4">
    <style type="text/css" id="style6">
   
    .fil0 {fill:#02ABCA}
    .fil1 {fill:#8B8B8B;fill-rule:nonzero}
   
  </style>
  </defs>
  <g id="Capa_x0020_1" transform="translate(-5.8253916,-5.6213889)">
    <g id="_56610944">
      <path id="_56666168" class="fil0" d="m 165.011,25.954 c 0,13.4272 15.875,11.5068 15.875,2.1167 l 0,-22.225 -15.875,0 0,20.1083 z" style="fill:#009ac7;fill-opacity:1;stroke:none"/>
      <path id="_56603080" class="fil0" d="m 143.139,40.0651 c 0,6.6341 4.5822,10.5833 11.2889,10.5833 l 38.1,0 c 5.6587,0 10.2306,-3.9072 10.2306,-9.525 l 0,-27.8694 c 0,-3.3857 -2.5233,-7.0555 -5.6444,-7.0555 l -8.8195,0 0,22.9305 c 0,17.4161 -30.3389,17.282 -30.3389,0.3528 l 0,-23.6361 -6.7028,0 c -4.3638,0 -8.1139,2.7649 -8.1139,7.0555 l 0,27.1639 z" style="fill:#009ac7;fill-opacity:1;stroke:none"/>
      <path id="_56604928" class="fil1" d="m 90.4019,12.4334 c 0,3.6214 3.0496,6.671 6.8616,6.671 4.0026,0 7.1475,-2.9544 7.1475,-6.671 0,-3.7167 -3.1449,-6.6709 -7.1475,-6.6709 -3.812,0 -6.8616,2.9542 -6.8616,6.6709 z" style="fill-opacity: 1; fill-rule: nonzero; stroke: none; fill: rgb(56, 55, 55);"/>
      <polygon id="_56605920" class="fil1" points="103.363,63.8951 103.363,25.68 91.5455,25.68 91.5455,63.8951 " style="fill-opacity: 1; fill-rule: nonzero; stroke: none; fill: rgb(56, 55, 55);"/>
      <path id="_56605848" class="fil1" d="m 114.322,12.4334 c 0,3.6214 3.1449,6.671 6.9569,6.671 3.9072,0 7.0521,-2.9544 7.0521,-6.671 0,-3.7167 -3.1449,-6.6709 -7.0521,-6.6709 -3.812,0 -6.9569,2.9542 -6.9569,6.6709 z" style="fill-opacity: 1; fill-rule: nonzero; stroke: none; fill: rgb(56, 55, 55);"/>
      <polygon id="_56607936" class="fil1" points="127.283,63.8951 127.283,25.68 115.466,25.68 115.466,63.8951 " style="fill-opacity: 1; fill-rule: nonzero; stroke: none; fill: rgb(56, 55, 55);"/>
      <path id="_56607472" class="fil1" d="M 72.7715,9.0026 62.4791,49.505 c 0,0 -7.9098,-30.4006 -9.244,-34.7845 -1.2389,-4.2884 -3.9073,-6.1944 -7.624,-6.1944 -3.8119,0 -6.385,1.906 -7.7193,6.1944 C 36.653,19.1044 28.7431,49.505 28.7431,49.505 L 18.3555,9.0026 l -12.389,0 c 0,0 11.9125,43.1707 13.5326,48.2216 1.2388,3.9073 4.2885,7.0521 8.6722,7.0521 5.1461,0 7.5287,-3.7166 8.5769,-7.0521 1.1436,-3.4308 8.8629,-31.9254 8.8629,-31.9254 0,0 7.7192,28.4946 8.7676,31.9254 1.1436,3.3355 3.526,7.0521 8.577,7.0521 4.479,0 7.4333,-3.1448 8.7675,-7.0521 1.62,-5.0509 13.5326,-48.2216 13.5326,-48.2216 l -12.4843,0 z" style="fill-opacity: 1; fill-rule: nonzero; stroke: none; fill: rgb(56, 55, 55);"/>
    </g>
  </g>
</svg>